<?xml version="1.0" encoding="UTF-8"?>
<!-- Created with Inkscape (http://www.inkscape.org/) -->
<svg width="68.792mm" height="69.982mm" version="1.1" viewBox="0 0 68.792 69.982" xmlns="http://www.w3.org/2000/svg">
 <g transform="translate(-5.2917 443.44)">
  <g transform="translate(-.52917 -35.719)" opacity=".50962" stroke-width="1.0001">
   <path d="m5.8208-407.72v34.396s1.1344 19.492 7.4083 25.929c6.5805 6.7518 26.988 8.4667 26.988 8.4667s20.407-1.7148 26.987-8.4667c6.2739-6.4373 7.4083-25.929 7.4083-25.929v-34.396s-16.475 6.1308-22.49 12.171c-5.9302 5.9554-11.906 22.225-11.906 22.225s-5.976-16.27-11.906-22.225c-6.0145-6.04-22.49-12.171-22.49-12.171z" fill="#fcb8a2" opacity="1"/>
   <path d="m13.229-347.4s-6.8773 0.8214-3.7155 4.7894c6.4235 8.0612 30.703 3.6773 30.703 3.6773zm26.988 8.4667s24.28 4.3844 30.703-3.6768c3.1618-3.968-3.7155-4.7899-3.7155-4.7899z" fill="#99a885" opacity="1"/>
  </g>
 </g>
</svg>
