<?xml version="1.0" encoding="UTF-8" standalone="no"?>
<!-- Created with Inkscape (http://www.inkscape.org/) -->

<svg
   width="793.70081"
   height="1122.5197"
   viewBox="0 0 210 297"
   version="1.1"
   id="svg5"
   inkscape:version="1.1.1 (3bf5ae0d25, 2021-09-20)"
   sodipodi:docname="squiggle.svg"
   xmlns:inkscape="http://www.inkscape.org/namespaces/inkscape"
   xmlns:sodipodi="http://sodipodi.sourceforge.net/DTD/sodipodi-0.dtd"
   xmlns="http://www.w3.org/2000/svg"
   xmlns:svg="http://www.w3.org/2000/svg">
  <sodipodi:namedview
     id="namedview7"
     pagecolor="#ffffff"
     bordercolor="#666666"
     borderopacity="1.0"
     inkscape:pageshadow="2"
     inkscape:pageopacity="0.0"
     inkscape:pagecheckerboard="true"
     inkscape:document-units="px"
     showgrid="false"
     showborder="false"
     units="px"
     inkscape:zoom="0.25"
     inkscape:cx="1026"
     inkscape:cy="-106"
     inkscape:window-width="1920"
     inkscape:window-height="1017"
     inkscape:window-x="-8"
     inkscape:window-y="-8"
     inkscape:window-maximized="1"
     inkscape:current-layer="layer1" />
  <defs
     id="defs2" />
  <g
     inkscape:label="Layer 1"
     inkscape:groupmode="layer"
     id="layer1">
    <path
       id="path3928-36"
       style="fill:none;stroke:#000000;stroke-width:2.64583334;stroke-linecap:butt;stroke-linejoin:miter;stroke-miterlimit:4;stroke-dasharray:none;stroke-opacity:1"
       d="m -143.10652,-72.254012 c 0,0 13.6644,-57.037268 53.660812,-57.037268 39.99641,0 53.660808,57.037268 53.660808,57.037268 m -214.64323,0 c 0,0 13.66441,57.03726 53.66081,57.03726 39.99639,0 53.6608,-57.03726 53.6608,-57.03726 m 214.643233,0 c 0,0 13.66441,-57.037268 53.660817,-57.037268 39.99639,0 53.6608,57.037268 53.6608,57.037268 m -214.64323,0 c 0,0 13.664398,57.037265 53.660813,57.037265 39.9964,0 53.6608,-57.037265 53.6608,-57.037265 m 429.286467,0 c 0,0 13.6644,-57.037268 53.66081,-57.037268 39.99641,0 53.66081,57.037268 53.66081,57.037268 m -214.64323,0 c 0,0 13.66439,57.037263 53.6608,57.037263 39.99641,0 53.66081,-57.037263 53.66081,-57.037263 m -214.64323,0 c 0,0 13.6644,-57.037268 53.66081,-57.037268 39.99641,0 53.66081,57.037268 53.66081,57.037268 m -214.64324,0 c 0,0 13.6644,57.037263 53.66081,57.037263 39.9964,0 53.66081,-57.037263 53.66081,-57.037263"
       sodipodi:nodetypes="csccsccsccsccsccsccsccsc" />
  </g>
</svg>
